<svg version="1.2" xmlns="http://www.w3.org/2000/svg" viewBox="0 0 1548 734" width="1548" height="734"><defs><linearGradient id="P" gradientUnits="userSpaceOnUse"/><linearGradient id="g1" x2="1" href="#P" gradientTransform="matrix(339.448,0,0,534.876,1208.007,466.296)"><stop stop-color="#ed0000"/><stop offset="1" stop-color="#c80000"/></linearGradient><linearGradient id="g2" x2="1" href="#P" gradientTransform="matrix(0,-168.053,329.708,0,1382.55,366.978)"><stop stop-color="#a50000" stop-opacity="0"/><stop offset="1" stop-color="#a50000" stop-opacity="1"/></linearGradient></defs><style>.a{fill:#ed0000}.b{fill:url(#g1)}.c{fill:url(#g2)}</style><path  d="m390.7 520.6l35.5-34.5h-29.9c-10.1 11.4-21 23-31.3 34.1v-71.3l-32.7 1.7v12.6l8.3 1.1v119.7h24.4v-39.2l8-8 27.6 47.2h29.4zm-110.2-37.2c-13.9 0-22.8 4.6-33.3 15.1l-2.6-12.4-26.5 1.4v12.5l8.3 1.1v83h24.4v-66.8c8.4-9 14.1-13.8 24.2-13.8 12 0 16 9.2 16 23.9v56.7h24.4v-61.8c0-23.2-10.1-38.9-34.9-38.9zm-121 0c-12.7 0-26.1 3.7-36 7.3l3.8 18.5c8.5-3.4 19.2-5.7 28.7-5.7 15.9 0 20.4 4.1 20.4 16.3v4.2h-11.8c-30.9 0-49 10.5-49 32.8 0 19.8 13.6 30 33.6 30 12.6 0 22.1-4 30.9-12.1l1.9 9.4h18.9v-66.6c0-21.5-12-34.1-41.4-34.1zm16.9 73.7c-6.2 5.6-12.9 9.5-21.5 9.5-9.9 0-14.9-5.2-14.9-13.2 0-9.6 7.5-14.4 24.3-14.4h12.1zm-113.5-73.7c-13.4 0-22 5.1-29.8 12.6v-47.1l-32.8 1.8v12.5l8.4 1.1v114.4c12.5 3.8 27.2 8 40.8 8 36.8 0 52.7-23.8 52.7-55.6 0-26.3-12.2-47.7-39.3-47.7zm-12 83.2c-6.9 0-12.9-2.3-17.8-4.4v-44.2c8.4-9.9 15.7-14.5 24.6-14.5 14.1 0 18.9 13.3 18.9 30.6 0 20.9-8.8 32.5-25.7 32.5zm575.3-288.4c-8.4 0-15.1 6.7-15.1 15 0 8.3 6.7 15.1 15.1 15.1 8.3 0 15-6.8 15-15.1 0-8.3-6.7-15-15-15zm-12.3 133h0.1v9.1h24.4v-97.9l-32.8 1.7v12.5l8.3 1.1zm-125-91.5c-12.7 0-26.1 3.7-36 7.3l3.8 18.5c8.6-3.4 19.3-5.7 28.8-5.7 15.8 0 20.4 4.1 20.4 16.3v4.2h-11.8c-30.9 0-49 10.5-49 32.8 0 19.8 13.5 29.9 33.5 29.9 12.6 0 22.2-4 30.9-12l1.9 9.3h18.9v-66.5c0-21.6-12-34.1-41.4-34.1zm17 73.7c-6.3 5.6-13 9.5-21.5 9.5-10 0-14.9-5.2-14.9-13.3 0-9.5 7.4-14.4 24.2-14.4h12.2zm194.8-73.7c-12.7 0-26.1 3.8-36 7.4l3.8 18.5c8.6-3.5 19.3-5.7 28.8-5.7 15.8 0 20.4 4 20.4 16.3v4.1h-11.8c-30.9 0-49.1 10.5-49.1 32.8 0 19.9 13.6 30 33.6 30 12.6 0 22.1-4 30.9-12l1.9 9.3h18.9v-66.5c0-21.6-12-34.2-41.4-34.2zm17 73.7c-6.3 5.6-13 9.6-21.6 9.6-9.9 0-14.8-5.3-14.8-13.3 0-9.5 7.4-14.4 24.2-14.4h12.2zm-671.7-73.7c-12.7 0-26 3.7-35.9 7.3l3.7 18.6c8.6-3.5 19.3-5.8 28.8-5.8 15.8 0 20.4 4.1 20.4 16.3v4.2h-11.8c-30.9 0-49 10.5-49 32.8 0 19.9 13.5 30 33.5 30 12.6 0 22.2-4 30.9-12.1l1.9 9.4h18.9v-66.6c0-21.5-12-34.1-41.4-34.1zm17 73.7c-6.3 5.6-12.9 9.5-21.5 9.5-9.9 0-14.9-5.2-14.9-13.2 0-9.5 7.4-14.4 24.2-14.4h12.2zm524.6 9.4c-5.8 0-7.7-3.2-7.7-9.7v-107.9l-32.7 1.8v12.5l8.3 1.1v73.5 25.3c0 17.7 10 23.1 23.5 23.1 6.3 0 11.6-1.2 15.2-2.1v-17.6zm-152.8-58.7c-2.1-0.5-7.3-1.3-10.2-1.3-6.2 0-12 5.3-21.1 17v60.6h-24.4v-98h19.1l2.2 16.4c9.6-13.1 15.5-19.1 25.6-19.1 4.9 0 8 0.4 11.6 1.4zm-74.6 76c-4.4 1.5-12.1 2.3-19.1 2.3-16 0-26.9-6.8-26.9-27.6v-54h-14.1v-18.4h14.1l5.7-28.4h18.7v28.4h21.6v18.4h-21.6v46.5c0 13 3.8 15.7 13.7 15.7h7.9zm-109.7 2.8c-9.2 0-19.4-1.3-28.8-3.8l3.5-19.4c7.8 2.6 16.7 4.4 24.5 4.4 9.4 0 15.5-3.9 15.5-11.3 0-6.5-5-9.5-16.6-13.3-16.6-5.2-26.3-12-26.3-28.8 0-18.7 13.9-31.1 38.1-31.1 8.2 0 17.4 1.4 24.6 3.5l-2.9 18.5c-6.6-2.3-14.3-3.7-20.7-3.7-10.5 0-14 5.8-14 10.9 0 6.3 4.8 8.9 16.8 13 18.1 5.7 26.5 13.1 26.5 28.7 0 19.5-15.2 32.4-40.2 32.4zm-67.8-2.6l-2.3-12.4c-10.5 10.5-19.5 15-33.4 15-24.8 0-34.7-15.6-34.7-38.8v-61.8h24.4v56.8c0 14.7 4 23.8 16 23.8 9.9 0 15.7-4.7 24.1-13.7v-66.9h24.3v98zm133.8-314.5c-8.3 0-15.1 6.7-15.1 15 0 8.3 6.8 15.1 15.1 15.1 8.3 0 15.1-6.8 15.1-15.1 0-8.3-6.8-15-15.1-15zm-12.2 133v9.1h24.4v-97.9l-32.7 1.7v12.6l8.3 1.1zm-241.3-91.6c-13.9 0-22.8 4.6-33.3 15.1l-2.6-12.4-26.5 1.4v12.5l8.3 1.1v83h24.4v-66.9c8.4-8.9 14.1-13.7 24.2-13.7 12 0 16 9.2 16 23.9v56.7h24.4v-61.8c0-23.3-10.1-38.9-34.9-38.9zm461.4 0c-14 0-22.9 4.6-33.4 15.1l-2.5-12.4-26.6 1.4v12.5l8.3 1.1v83h24.4v-66.9c8.4-8.9 14.1-13.7 24.2-13.7 12 0 16.1 9.2 16.1 23.9v56.7h24.4v-61.8c0-23.3-10.1-38.9-34.9-38.9zm96.8 0c-12.7 0-26.1 3.7-36 7.3l3.8 18.5c8.6-3.4 19.3-5.7 28.8-5.7 15.8 0 20.4 4.1 20.4 16.3v4.2h-11.8c-30.9 0-49 10.5-49 32.8 0 19.8 13.5 29.9 33.5 29.9 12.6 0 22.1-4 30.9-12l1.9 9.4h18.9v-66.6c0-21.5-12-34.1-41.4-34.1zm17 73.7c-6.3 5.6-13 9.5-21.6 9.5-9.9 0-14.8-5.2-14.8-13.2 0-9.6 7.4-14.4 24.2-14.4h12.2zm-478.3-73.7c-12.7 0-26.1 3.7-36 7.3l3.8 18.5c8.6-3.4 19.2-5.7 28.8-5.7 15.8 0 20.4 4.1 20.4 16.3v4.2h-11.9c-30.8 0-49 10.5-49 32.8 0 19.8 13.6 29.9 33.6 29.9 12.6 0 22.1-4 30.9-12l1.9 9.4h18.9v-66.6c0-21.5-12-34.1-41.4-34.1zm17 73.7c-6.3 5.6-13 9.5-21.6 9.5-9.9 0-14.9-5.2-14.9-13.3 0-9.5 7.5-14.3 24.3-14.3h12.2zm543 9.4c-5.8 0-7.7-3.2-7.7-9.7v-107.9l-32.7 1.7v12.6l8.3 1.1v73.4 25.4c0 17.7 9.9 23 23.5 23 6.3 0 11.6-1.1 15.2-2.1v-17.5zm-321.4 20.2c-32.6 0-49.8-19.2-49.8-49.9 0-32.2 18.3-53.4 51.7-53.4 32.4 0 49.5 19.6 49.5 50.7 0 31.4-18.1 52.6-51.4 52.6zm0.4-84c-16.8 0-24.6 13.3-24.6 31.6 0 20 7.6 33 25.5 33 16.8 0 24.6-12.8 24.6-31.1 0-20.4-7.4-33.5-25.5-33.5zm-122.2 81.1c-4.4 1.6-12 2.3-19.1 2.3-16 0-26.9-6.8-26.9-27.6v-53.9h-14.1v-18.5h14.1l5.7-28.4h18.7v28.4h21.6v18.5h-21.6v46.5c0 12.9 3.8 15.6 13.7 15.6h7.9z"/><path class="a" d="m1543.6 518.2l-120.6-151.2 120.6-151.3c7.4-9.2 3.8-16.8-8-16.8h-45.9c-2.4 0-5.6 1.4-7.3 3.1l-157.3 165h-9.6l120.6-151.3c7.4-9.2 3.8-16.8-8-16.8h-45.9c-2.3 0-5.6 1.4-7.2 3.1l-157.4 165h-9.6l131.4-164.7c1.4-1.9 2.2-5.3 1.7-7.6l-42.1-184.4c-2.7-11.5-10.8-13.4-18.2-4.1l-120.6 151.2-174.4-83.9c-10.6-5.1-17.2 0.1-14.6 11.6l43.1 188.6-174.3 84c-10.7 5.1-10.7 13.5 0 18.6l174.3 83.9-43.1 188.7c-2.6 11.5 4 16.7 14.6 11.6l174.4-84 120.6 151.3c7.4 9.2 15.6 7.4 18.2-4.1l43-188.7h193.6c11.8 0 15.4-7.5 8-16.8z"/><path class="b" d="m1489.7 198.9c-2.3 0-5.6 1.4-7.2 3.1l-157.4 165h-9.6l120.7-151.3c7.3-9.2 3.7-16.8-8.1-16.8h-45.9c-2.3 0-5.6 1.4-7.2 3.1l-157.3 165h-9.7v269.5l72.8 91.3c3.1 3.9 6.3 5.8 9.2 5.9h0.4c3.9-0.2 7.1-3.6 8.6-10.1l43-188.6h193.6c7.5 0 11.7-3 11.8-7.7v-0.5c0-2.5-1.3-5.4-3.8-8.6l-120.6-151.2 120.6-151.3c2.6-3.1 3.8-6.1 3.8-8.6v-0.4c-0.1-4.7-4.3-7.8-11.8-7.8z"/><path class="c" d="m1489.7 198.9c-2.3 0-5.6 1.4-7.2 3.1l-157.4 165h97.9l120.6-151.3c2.6-3.1 3.8-6.1 3.8-8.6v-0.4c-0.1-4.7-4.3-7.8-11.8-7.8zm-107.5 0c-2.4 0-5.7 1.4-7.3 3.1l-157.3 165h97.8l120.7-151.3c7.4-9.2 3.7-16.8-8.1-16.8z"/></svg>